<svg width="327" height="49" viewBox="0 0 327 49" fill="none" xmlns="http://www.w3.org/2000/svg">
<g clip-path="url(#clip0_70_2352)">
<path d="M22.5925 25.5552C25.306 24.009 28.2198 22.8774 31.2439 22.1952L29.0044 15.0345C28.0449 15.4703 27.0576 15.8607 26.0423 16.2055C24.1056 16.8598 22.1142 17.3246 20.0943 17.5938C19.5174 14.4326 19.382 11.2014 19.6922 8L12.4403 8C12.5418 9.08207 12.5955 10.1807 12.5955 11.2897C12.6007 13.4057 12.4155 15.5177 12.0421 17.5979C8.96947 17.1938 5.9691 16.3304 3.134 15.0345L0.894531 22.1952C1.91772 22.4283 2.93693 22.7159 3.95216 23.0579C5.88992 23.7103 7.76413 24.5513 9.54985 25.5697C8.22956 28.4781 6.51253 31.1735 4.45181 33.5724L10.3123 38C10.8431 37.0607 11.4217 36.1421 12.0481 35.2441C13.2445 33.5307 14.5928 31.9375 16.0752 30.4855C18.3291 32.6901 20.2653 35.221 21.8242 38L27.6866 33.5745C26.9919 32.7593 26.327 31.9048 25.696 31.0069C24.4997 29.2946 23.4606 27.4693 22.5925 25.5552Z" fill="white"/>
<path d="M41.2329 8H62.9886V15.2228H49.4841V20.0248H60.6596V26.6724H49.4841V37.3441H41.2329V8Z" fill="white"/>
<path d="M62.5566 26.9186C62.5566 20.5586 66.9002 15.7979 73.6127 15.7979C80.3251 15.7979 84.5891 20.5565 84.5891 26.9186C84.5891 33.2807 80.3211 38 73.6127 38C66.9042 38 62.5566 33.2807 62.5566 26.9186ZM77.0087 26.9186C77.0087 23.389 75.8143 21.0097 73.533 21.0097C71.2518 21.0097 70.137 23.389 70.137 26.9186C70.137 30.4483 71.2438 32.8276 73.533 32.8276C75.8223 32.8276 77.0087 30.4483 77.0087 26.9186Z" fill="white"/>
<path d="M93.5529 19.5738H93.6723C95.2907 16.9462 97.2256 15.9614 99.7916 15.9614C100.209 15.9373 100.627 16.0079 101.016 16.1683V22.7745H100.859C96.4791 21.9945 93.9092 24.0469 93.9092 28.7745V37.3524H86.4463V16.4124H93.5529V19.5738Z" fill="white"/>
<path d="M102.123 16.4124H104.728V9.64069H112.034V16.4124H115.864V21.0924H112.034V29.5876C112.034 31.6793 113.455 31.7207 115.784 31.5572V37.2614C114.584 37.5795 113.352 37.7449 112.114 37.7538C107.217 37.7538 104.728 36.3179 104.728 31.311V21.0924H102.123V16.4124Z" fill="white"/>
<path d="M130.159 35.0455H130.087C128.746 36.9738 126.612 37.8759 124.006 37.8759C120.136 37.8759 117.293 35.7014 117.293 31.5986C117.293 26.96 120.729 25.5986 124.599 25.1538C128.863 24.6614 130.008 24.1193 130.008 22.8159C130.008 21.6655 129.494 20.8048 127.876 20.8048C126.257 20.8048 125.427 21.7896 125.23 23.3083H118.163C118.321 19.1703 121.4 15.7565 127.718 15.7565C130.798 15.7565 132.773 16.1703 134.311 17.151C136.406 18.5062 137.431 20.6393 137.431 23.4303V33.8952C137.431 35.66 137.55 36.6055 138.181 37.0152V37.3441H130.83C130.553 36.8517 130.316 36.1938 130.159 35.0455ZM130.197 29.751V27.9034C129.28 28.3588 128.311 28.6924 127.314 28.8965C125.143 29.389 124.472 30.0469 124.472 31.2779C124.472 32.6724 125.579 33.289 126.803 33.289C128.539 33.2807 130.197 32.2545 130.197 29.751Z" fill="white"/>
</g>
<path d="M161.09 38.3516C158.477 38.3516 156.484 37.5312 155.113 35.8906C153.754 34.2383 153.074 31.8359 153.074 28.6836C153.074 25.3789 153.795 22.8594 155.236 21.125C156.678 19.3906 158.688 18.5234 161.266 18.5234C162.367 18.5234 163.322 18.6934 164.131 19.0332C164.951 19.373 165.637 19.8359 166.188 20.4219C166.75 20.9961 167.184 21.6523 167.488 22.3906H167.629C167.582 21.7695 167.547 21.1016 167.523 20.3867C167.5 19.6719 167.488 19.0156 167.488 18.418V10.6484H169.264V38H167.822L167.594 34.502H167.488C167.172 35.2051 166.732 35.8496 166.17 36.4355C165.619 37.0215 164.928 37.4902 164.096 37.8418C163.264 38.1816 162.262 38.3516 161.09 38.3516ZM161.283 36.8047C163.533 36.8047 165.133 36.1074 166.082 34.7129C167.031 33.3066 167.506 31.3027 167.506 28.7012V28.4199C167.506 25.7246 167.031 23.6621 166.082 22.2324C165.133 20.791 163.586 20.0703 161.441 20.0703C159.32 20.0703 157.697 20.8086 156.572 22.2852C155.459 23.7617 154.902 25.9062 154.902 28.7188C154.902 31.3672 155.424 33.377 156.467 34.748C157.521 36.1191 159.127 36.8047 161.283 36.8047ZM182.289 18.5586C184.387 18.5586 185.957 19.0859 187 20.1406C188.043 21.1953 188.564 22.877 188.564 25.1855V38H187.193L186.877 34.6602H186.771C186.361 35.375 185.863 36.0137 185.277 36.5762C184.691 37.127 183.971 37.5605 183.115 37.877C182.271 38.1934 181.24 38.3516 180.021 38.3516C178.791 38.3516 177.736 38.1465 176.857 37.7363C175.99 37.3262 175.316 36.7285 174.836 35.9434C174.367 35.1582 174.133 34.2031 174.133 33.0781C174.133 31.1797 174.918 29.7383 176.488 28.7539C178.059 27.7578 180.314 27.1953 183.256 27.0664L186.807 26.8906V25.502C186.807 23.5449 186.42 22.1504 185.646 21.3184C184.873 20.4863 183.73 20.0703 182.219 20.0703C181.234 20.0703 180.285 20.1992 179.371 20.457C178.469 20.7031 177.549 21.0605 176.611 21.5293L176.049 20.0527C176.963 19.6191 177.941 19.2617 178.984 18.9805C180.039 18.6992 181.141 18.5586 182.289 18.5586ZM186.789 28.2793L183.449 28.4199C181.023 28.5371 179.178 28.9707 177.912 29.7207C176.646 30.4707 176.014 31.5957 176.014 33.0957C176.014 34.3027 176.389 35.2285 177.139 35.873C177.9 36.5176 178.955 36.8398 180.303 36.8398C182.4 36.8398 184 36.2422 185.102 35.0469C186.215 33.8516 186.777 32.2227 186.789 30.1602V28.2793ZM206.652 32.9902C206.652 34.127 206.365 35.0996 205.791 35.9082C205.229 36.7051 204.402 37.3145 203.312 37.7363C202.223 38.1465 200.881 38.3516 199.287 38.3516C197.963 38.3516 196.779 38.2344 195.736 38C194.693 37.7656 193.82 37.4785 193.117 37.1387V35.3809C193.996 35.8145 194.969 36.166 196.035 36.4355C197.102 36.7051 198.197 36.8398 199.322 36.8398C201.291 36.8398 202.709 36.5059 203.576 35.8379C204.443 35.1699 204.877 34.2559 204.877 33.0957C204.877 32.334 204.66 31.707 204.227 31.2148C203.805 30.7109 203.195 30.2773 202.398 29.9141C201.602 29.5508 200.641 29.1816 199.516 28.8066C198.344 28.4082 197.301 28.0156 196.387 27.6289C195.484 27.2305 194.775 26.709 194.26 26.0645C193.744 25.4082 193.486 24.5176 193.486 23.3926C193.486 21.8574 194.102 20.6621 195.332 19.8066C196.562 18.9512 198.215 18.5234 200.289 18.5234C201.438 18.5234 202.504 18.6348 203.488 18.8574C204.484 19.0684 205.387 19.3438 206.195 19.6836L205.562 21.1953C204.836 20.8555 203.998 20.5801 203.049 20.3691C202.1 20.1582 201.15 20.0527 200.201 20.0527C198.643 20.0527 197.424 20.3281 196.545 20.8789C195.666 21.4297 195.227 22.2383 195.227 23.3047C195.227 24.125 195.438 24.7695 195.859 25.2383C196.281 25.6953 196.885 26.082 197.67 26.3984C198.455 26.7031 199.387 27.043 200.465 27.418C201.578 27.8047 202.604 28.209 203.541 28.6309C204.49 29.0527 205.246 29.5977 205.809 30.2656C206.371 30.9336 206.652 31.8418 206.652 32.9902ZM213.244 10.6484V19.5781C213.244 20.0938 213.232 20.5742 213.209 21.0195C213.197 21.4648 213.174 21.916 213.139 22.373H213.262C213.578 21.6465 214.029 20.9961 214.615 20.4219C215.213 19.8477 215.945 19.3906 216.812 19.0508C217.691 18.7109 218.705 18.541 219.854 18.541C221.307 18.541 222.525 18.793 223.51 19.2969C224.506 19.7891 225.262 20.5449 225.777 21.5645C226.293 22.584 226.551 23.8965 226.551 25.502V38H224.793V25.6074C224.793 23.709 224.359 22.3145 223.492 21.4238C222.625 20.5332 221.365 20.0879 219.713 20.0879C218.307 20.0879 217.123 20.3633 216.162 20.9141C215.201 21.4531 214.475 22.2734 213.982 23.375C213.49 24.4648 213.244 25.8301 213.244 27.4707V38H211.469V10.6484H213.244ZM234.496 10.6484V18.418C234.496 19.0859 234.484 19.8184 234.461 20.6152C234.438 21.4121 234.414 22.0742 234.391 22.6016H234.496C234.953 21.418 235.75 20.4395 236.887 19.666C238.023 18.8926 239.441 18.5059 241.141 18.5059C243.625 18.5059 245.541 19.3438 246.889 21.0195C248.248 22.6953 248.928 25.1504 248.928 28.3848C248.928 30.3652 248.623 32.1055 248.014 33.6055C247.404 35.0938 246.496 36.2598 245.289 37.1035C244.094 37.9355 242.594 38.3516 240.789 38.3516C239.16 38.3516 237.83 38.0117 236.799 37.332C235.768 36.6406 235.018 35.7793 234.549 34.748H234.408L234.074 38H232.721V10.6484H234.496ZM240.947 20.0527C239.436 20.0527 238.205 20.3809 237.256 21.0371C236.307 21.6816 235.609 22.625 235.164 23.8672C234.719 25.1094 234.496 26.627 234.496 28.4199V28.7012C234.496 31.3379 234.977 33.3477 235.938 34.7305C236.898 36.1133 238.457 36.8047 240.613 36.8047C242.746 36.8047 244.357 36.0781 245.447 34.625C246.549 33.1602 247.1 31.0801 247.1 28.3848C247.1 25.6309 246.59 23.5566 245.57 22.1621C244.551 20.7559 243.01 20.0527 240.947 20.0527ZM270.039 28.4199C270.039 29.8965 269.857 31.2441 269.494 32.4629C269.131 33.6699 268.592 34.7129 267.877 35.5918C267.162 36.4707 266.271 37.1504 265.205 37.6309C264.15 38.1113 262.92 38.3516 261.514 38.3516C260.178 38.3516 258.988 38.1172 257.945 37.6484C256.902 37.168 256.018 36.4883 255.291 35.6094C254.576 34.7305 254.031 33.6875 253.656 32.4805C253.281 31.2617 253.094 29.9082 253.094 28.4199C253.094 26.3691 253.434 24.6055 254.113 23.1289C254.805 21.6406 255.789 20.5039 257.066 19.7188C258.355 18.9219 259.896 18.5234 261.689 18.5234C263.541 18.5234 265.082 18.9453 266.312 19.7891C267.555 20.6211 268.486 21.7812 269.107 23.2695C269.729 24.7578 270.039 26.4746 270.039 28.4199ZM254.922 28.4199C254.922 30.0957 255.162 31.5605 255.643 32.8145C256.123 34.0684 256.85 35.0469 257.822 35.75C258.807 36.4531 260.049 36.8047 261.549 36.8047C263.084 36.8047 264.344 36.4531 265.328 35.75C266.312 35.0469 267.039 34.0625 267.508 32.7969C267.977 31.5312 268.211 30.0723 268.211 28.4199C268.211 26.8145 267.988 25.3848 267.543 24.1309C267.098 22.877 266.395 21.8926 265.434 21.1777C264.473 20.4512 263.219 20.0879 261.672 20.0879C259.457 20.0879 257.775 20.8262 256.627 22.3027C255.49 23.7793 254.922 25.8184 254.922 28.4199ZM281.992 18.5586C284.09 18.5586 285.66 19.0859 286.703 20.1406C287.746 21.1953 288.268 22.877 288.268 25.1855V38H286.896L286.58 34.6602H286.475C286.064 35.375 285.566 36.0137 284.98 36.5762C284.395 37.127 283.674 37.5605 282.818 37.877C281.975 38.1934 280.943 38.3516 279.725 38.3516C278.494 38.3516 277.439 38.1465 276.561 37.7363C275.693 37.3262 275.02 36.7285 274.539 35.9434C274.07 35.1582 273.836 34.2031 273.836 33.0781C273.836 31.1797 274.621 29.7383 276.191 28.7539C277.762 27.7578 280.018 27.1953 282.959 27.0664L286.51 26.8906V25.502C286.51 23.5449 286.123 22.1504 285.35 21.3184C284.576 20.4863 283.434 20.0703 281.922 20.0703C280.938 20.0703 279.988 20.1992 279.074 20.457C278.172 20.7031 277.252 21.0605 276.314 21.5293L275.752 20.0527C276.666 19.6191 277.645 19.2617 278.688 18.9805C279.742 18.6992 280.844 18.5586 281.992 18.5586ZM286.492 28.2793L283.152 28.4199C280.727 28.5371 278.881 28.9707 277.615 29.7207C276.35 30.4707 275.717 31.5957 275.717 33.0957C275.717 34.3027 276.092 35.2285 276.842 35.873C277.604 36.5176 278.658 36.8398 280.006 36.8398C282.104 36.8398 283.703 36.2422 284.805 35.0469C285.918 33.8516 286.48 32.2227 286.492 30.1602V28.2793ZM302.014 18.5586C302.518 18.5586 302.992 18.5879 303.438 18.6465C303.883 18.7051 304.299 18.7871 304.686 18.8926L304.404 20.5273C304.018 20.4219 303.625 20.3457 303.227 20.2988C302.828 20.2402 302.4 20.2109 301.943 20.2109C301.041 20.2109 300.232 20.3809 299.518 20.7207C298.814 21.0605 298.217 21.5469 297.725 22.1797C297.232 22.8125 296.857 23.5742 296.6 24.4648C296.342 25.3555 296.213 26.3516 296.213 27.4531V38H294.42V18.8926H295.949L296.125 22.4961H296.23C296.523 21.7578 296.934 21.0957 297.461 20.5098C298 19.9121 298.65 19.4375 299.412 19.0859C300.174 18.7344 301.041 18.5586 302.014 18.5586ZM315.355 38.3516C312.742 38.3516 310.75 37.5312 309.379 35.8906C308.02 34.2383 307.34 31.8359 307.34 28.6836C307.34 25.3789 308.061 22.8594 309.502 21.125C310.943 19.3906 312.953 18.5234 315.531 18.5234C316.633 18.5234 317.588 18.6934 318.396 19.0332C319.217 19.373 319.902 19.8359 320.453 20.4219C321.016 20.9961 321.449 21.6523 321.754 22.3906H321.895C321.848 21.7695 321.812 21.1016 321.789 20.3867C321.766 19.6719 321.754 19.0156 321.754 18.418V10.6484H323.529V38H322.088L321.859 34.502H321.754C321.438 35.2051 320.998 35.8496 320.436 36.4355C319.885 37.0215 319.193 37.4902 318.361 37.8418C317.529 38.1816 316.527 38.3516 315.355 38.3516ZM315.549 36.8047C317.799 36.8047 319.398 36.1074 320.348 34.7129C321.297 33.3066 321.771 31.3027 321.771 28.7012V28.4199C321.771 25.7246 321.297 23.6621 320.348 22.2324C319.398 20.791 317.852 20.0703 315.707 20.0703C313.586 20.0703 311.963 20.8086 310.838 22.2852C309.725 23.7617 309.168 25.9062 309.168 28.7188C309.168 31.3672 309.689 33.377 310.732 34.748C311.787 36.1191 313.393 36.8047 315.549 36.8047Z" fill="#B4B4B9"/>
<defs>
<clipPath id="clip0_70_2352">
<rect width="137.287" height="30" fill="white" transform="translate(0.894531 8)"/>
</clipPath>
</defs>
</svg>
