<svg width="24" height="24" viewBox="0 0 24 24" fill="none" xmlns="http://www.w3.org/2000/svg">
<path d="M19 1.99994C18.293 1.99826 17.6081 2.24695 17.0669 2.70195C16.5257 3.15695 16.1631 3.78886 16.0433 4.48569C15.9235 5.18252 16.0542 5.89927 16.4124 6.50889C16.7706 7.11852 17.333 7.58166 18 7.81622V10.9999H6.00001V7.81622C6.66722 7.58032 7.22956 7.11615 7.58764 6.50574C7.94572 5.89533 8.07647 5.17798 7.9568 4.48049C7.83713 3.78299 7.47474 3.15026 6.93367 2.69411C6.3926 2.23797 5.70769 1.98779 5.00001 1.98779C4.29232 1.98779 3.60741 2.23797 3.06635 2.69411C2.52528 3.15026 2.16288 3.78299 2.04321 4.48049C1.92354 5.17798 2.0543 5.89533 2.41237 6.50574C2.77045 7.11615 3.33279 7.58032 4.00001 7.81622V10.9999C4.00001 11.5304 4.21072 12.0391 4.58579 12.4142C4.96087 12.7892 5.46957 12.9999 6.00001 12.9999H11V17.1837C10.3328 17.4196 9.77045 17.8837 9.41237 18.4941C9.0543 19.1046 8.92354 19.8219 9.04321 20.5194C9.16288 21.2169 9.52528 21.8496 10.0663 22.3058C10.6074 22.7619 11.2923 23.0121 12 23.0121C12.7077 23.0121 13.3926 22.7619 13.9337 22.3058C14.4747 21.8496 14.8371 21.2169 14.9568 20.5194C15.0765 19.8219 14.9457 19.1046 14.5876 18.4941C14.2296 17.8837 13.6672 17.4196 13 17.1837V12.9999H18C18.5304 12.9999 19.0391 12.7892 19.4142 12.4142C19.7893 12.0391 20 11.5304 20 10.9999V7.81622C20.667 7.58166 21.2294 7.11852 21.5876 6.50889C21.9458 5.89927 22.0765 5.18252 21.9567 4.48569C21.8369 3.78886 21.4743 3.15695 20.9331 2.70195C20.3919 2.24695 19.7071 1.99826 19 1.99994V1.99994ZM5.00001 5.99994C4.80222 5.99994 4.60889 5.94129 4.44444 5.83141C4.27999 5.72153 4.15181 5.56535 4.07613 5.38262C4.00044 5.1999 3.98064 4.99883 4.01922 4.80485C4.05781 4.61087 4.15305 4.43269 4.2929 4.29283C4.43275 4.15298 4.61093 4.05774 4.80492 4.01915C4.9989 3.98057 5.19996 4.00037 5.38269 4.07606C5.56542 4.15175 5.72159 4.27992 5.83148 4.44437C5.94136 4.60882 6.00001 4.80216 6.00001 4.99994C6.00001 5.26516 5.89465 5.51951 5.70711 5.70705C5.51958 5.89458 5.26522 5.99994 5.00001 5.99994ZM12 20.9999C11.8022 20.9999 11.6089 20.9413 11.4444 20.8314C11.28 20.7215 11.1518 20.5653 11.0761 20.3826C11.0004 20.1999 10.9806 19.9988 11.0192 19.8048C11.0578 19.6109 11.153 19.4327 11.2929 19.2928C11.4328 19.153 11.6109 19.0577 11.8049 19.0192C11.9989 18.9806 12.2 19.0004 12.3827 19.0761C12.5654 19.1517 12.7216 19.2799 12.8315 19.4444C12.9414 19.6088 13 19.8022 13 19.9999C13 20.2652 12.8946 20.5195 12.7071 20.707C12.5196 20.8946 12.2652 20.9999 12 20.9999ZM19 5.99994C18.8022 5.99994 18.6089 5.94129 18.4444 5.83141C18.28 5.72153 18.1518 5.56535 18.0761 5.38262C18.0004 5.1999 17.9806 4.99883 18.0192 4.80485C18.0578 4.61087 18.153 4.43269 18.2929 4.29283C18.4328 4.15298 18.6109 4.05774 18.8049 4.01915C18.9989 3.98057 19.2 4.00037 19.3827 4.07606C19.5654 4.15175 19.7216 4.27992 19.8315 4.44437C19.9414 4.60882 20 4.80216 20 4.99994C20 5.26516 19.8946 5.51951 19.7071 5.70705C19.5196 5.89458 19.2652 5.99994 19 5.99994Z" fill="currentColor"/>
</svg>
