<svg width="24" height="24" viewBox="0 0 24 24" fill="none" xmlns="http://www.w3.org/2000/svg">
<path d="M12 2.40002C9.62512 2.40002 7.44226 3.26678 5.76562 4.70002C5.68159 4.76693 5.61188 4.85007 5.56066 4.94449C5.50944 5.03891 5.47776 5.14268 5.46751 5.2496C5.45726 5.35653 5.46864 5.46443 5.50098 5.56686C5.53332 5.6693 5.58596 5.76417 5.65575 5.84582C5.72555 5.92748 5.81107 5.99424 5.90722 6.04213C6.00337 6.09002 6.10818 6.11806 6.2154 6.12458C6.32262 6.1311 6.43006 6.11596 6.5313 6.08006C6.63254 6.04417 6.72552 5.98825 6.80469 5.91565C8.20326 4.7201 10.0133 4.00002 12 4.00002C16.1572 4.00002 19.5608 7.15037 19.9609 11.2H17.6L20.8 16L24 11.2H21.5594C21.1503 6.28135 17.0223 2.40002 12 2.40002ZM3.2 8.00002L0 12.8H2.44062C2.84966 17.7187 6.97773 21.6 12 21.6C14.3749 21.6 16.5577 20.7333 18.2344 19.3C18.3184 19.2331 18.3881 19.15 18.4393 19.0556C18.4906 18.9611 18.5222 18.8574 18.5325 18.7504C18.5427 18.6435 18.5314 18.5356 18.499 18.4332C18.4667 18.3308 18.414 18.2359 18.3442 18.1542C18.2745 18.0726 18.1889 18.0058 18.0928 17.9579C17.9966 17.91 17.8918 17.882 17.7846 17.8755C17.6774 17.8689 17.5699 17.8841 17.4687 17.92C17.3675 17.9559 17.2745 18.0118 17.1953 18.0844C15.7967 19.2799 13.9867 20 12 20C7.84275 20 4.43921 16.8497 4.03906 12.8H6.4L3.2 8.00002Z" fill="currentColor"/>
</svg>
