<svg width="24" height="24" viewBox="0 0 24 24" fill="none" xmlns="http://www.w3.org/2000/svg">
<path fill-rule="evenodd" clip-rule="evenodd" d="M16.5579 3.02796C16.0749 2.97339 15.5839 2.9892 15.1002 3.07733C14.1003 3.25952 13.1796 3.74211 12.4609 4.46081C11.7422 5.1795 11.2596 6.10016 11.0774 7.10009C10.8953 8.10001 11.0221 9.13172 11.4412 10.0577C11.6128 10.4369 11.5315 10.8828 11.2372 11.1771L4.32721 18.0871C4.11692 18.2974 3.99878 18.5826 3.99878 18.88C3.99878 19.1774 4.11692 19.4626 4.32721 19.6729C4.5375 19.8832 4.82271 20.0013 5.1201 20.0013C5.41749 20.0013 5.7027 19.8832 5.91299 19.6729L12.823 12.7629C13.1173 12.4686 13.5632 12.3873 13.9424 12.5589C14.8684 12.978 15.9001 13.1048 16.9 12.9226C17.8999 12.7404 18.8206 12.2578 19.5393 11.5392C20.258 10.8205 20.7406 9.8998 20.9228 8.89987C21.0109 8.41622 21.0267 7.92514 20.9721 7.44218L18.4001 10.0142C18.0263 10.3806 17.5236 10.5858 17.0001 10.5858C16.4766 10.5858 15.974 10.3806 15.6001 10.0141L15.593 10.0071L13.9859 8.40002C13.6195 8.02616 13.4142 7.52349 13.4142 6.99998C13.4142 6.47647 13.6195 5.97384 13.986 5.59998L13.993 5.59284L16.5579 3.02796ZM14.7417 1.10972C16.1416 0.854655 17.586 1.03228 18.8824 1.61892C19.1815 1.75426 19.3951 2.02777 19.4539 2.35073C19.5127 2.67369 19.4093 3.00496 19.1772 3.23709L15.4143 6.99998L17.0001 8.58577L20.763 4.82287C20.9951 4.59075 21.3264 4.48733 21.6493 4.54618C21.9723 4.60502 22.2458 4.81863 22.3812 5.11771C22.9678 6.41409 23.1454 7.85848 22.8904 9.25838C22.6353 10.6583 21.9597 11.9472 20.9535 12.9534C19.9473 13.9595 18.6584 14.6352 17.2585 14.8902C16.091 15.103 14.8927 15.0147 13.775 14.6393L7.32721 21.0871C6.74185 21.6724 5.94793 22.0013 5.1201 22.0013C4.29227 22.0013 3.49835 21.6724 2.91299 21.0871C2.32763 20.5017 1.99878 19.7078 1.99878 18.88C1.99878 18.0522 2.32763 17.2582 2.91299 16.6729L9.36075 10.2251C8.98534 9.10743 8.89713 7.90903 9.10984 6.74158C9.3649 5.34169 10.0405 4.05277 11.0467 3.0466C12.0529 2.04042 13.3418 1.36478 14.7417 1.10972Z" fill="currentColor"/>
</svg>
