<svg width="100" height="20" viewBox="0 0 100 20" fill="none" xmlns="http://www.w3.org/2000/svg">
<g clip-path="url(#clip0_395_3743)">
<path d="M15.8049 11.7034C17.7814 10.6727 19.9038 9.91825 22.1065 9.46345L20.4753 4.68966C19.7764 4.98023 19.0572 5.24046 18.3177 5.47034C16.907 5.90653 15.4565 6.21638 13.9852 6.39586C13.5649 4.28837 13.4663 2.13427 13.6923 0L8.40994 0C8.48389 0.721379 8.52304 1.45379 8.52304 2.1931C8.52683 3.60383 8.39187 5.01181 8.11994 6.39862C5.88181 6.1292 3.69633 5.5536 1.63124 4.68966L0 9.46345C0.745295 9.61885 1.48769 9.81057 2.22718 10.0386C3.63866 10.4735 5.00383 11.0342 6.30456 11.7131C5.34285 13.6521 4.09217 15.449 2.59113 17.0483L6.8599 20C7.24657 19.3738 7.66803 18.7614 8.12429 18.1628C8.99578 17.0205 9.97785 15.9584 11.0576 14.9903C12.6994 16.4601 14.1098 18.1473 15.2452 20L19.5154 17.0497C19.0094 16.5062 18.5251 15.9366 18.0654 15.3379C17.194 14.1964 16.4372 12.9795 15.8049 11.7034V11.7034Z" fill="white"/>
<path d="M29.3826 0H45.2295V4.81517H35.3928V8.01655H43.533V12.4483H35.3928V19.5628H29.3826V0Z" fill="white"/>
<path d="M44.9148 12.6124C44.9148 8.3724 48.0787 5.19861 52.968 5.19861C57.8574 5.19861 60.9633 8.37102 60.9633 12.6124C60.9633 16.8538 57.8545 20 52.968 20C48.0816 20 44.9148 16.8538 44.9148 12.6124ZM55.4417 12.6124C55.4417 10.2593 54.5717 8.67309 52.91 8.67309C51.2483 8.67309 50.4364 10.2593 50.4364 12.6124C50.4364 14.9655 51.2425 16.5517 52.91 16.5517C54.5775 16.5517 55.4417 14.9655 55.4417 12.6124Z" fill="white"/>
<path d="M67.4926 7.71592H67.5796C68.7585 5.96419 70.1679 5.30764 72.0369 5.30764C72.3411 5.29156 72.6454 5.33863 72.9286 5.44557V9.84971H72.8141C69.6241 9.32971 67.7522 10.698 67.7522 13.8497V19.5683H62.3162V5.60833H67.4926V7.71592Z" fill="white"/>
<path d="M73.7349 5.60823H75.6329V1.09375H80.9544V5.60823H83.7441V8.72823H80.9544V14.3917C80.9544 15.7862 81.9897 15.8137 83.6862 15.7048V19.5075C82.8122 19.7196 81.9143 19.8299 81.0124 19.8358C77.4454 19.8358 75.6329 18.8786 75.6329 15.5406V8.72823H73.7349V5.60823Z" fill="white"/>
<path d="M94.1564 18.0303H94.1042C93.127 19.3158 91.5726 19.9172 89.6745 19.9172C86.8557 19.9172 84.7852 18.4676 84.7852 15.7324C84.7852 12.64 87.2878 11.7324 90.1066 11.4358C93.2125 11.1076 94.0462 10.7462 94.0462 9.87723C94.0462 9.11033 93.6722 8.53654 92.4933 8.53654C91.3145 8.53654 90.7098 9.19309 90.5663 10.2055H85.4188C85.5334 7.44688 87.7765 5.17102 92.3788 5.17102C94.6219 5.17102 96.0603 5.44688 97.1811 6.10068C98.7065 7.00412 99.4533 8.42619 99.4533 10.2869V17.2634C99.4533 18.44 99.5403 19.0703 99.9999 19.3434V19.5627H94.6451C94.4435 19.2345 94.271 18.7958 94.1564 18.0303ZM94.184 14.5007V13.269C93.5161 13.5725 92.8107 13.7949 92.0844 13.931C90.5025 14.2593 90.0138 14.6979 90.0138 15.5186C90.0138 16.4483 90.82 16.8593 91.7118 16.8593C92.9762 16.8538 94.184 16.1696 94.184 14.5007V14.5007Z" fill="white"/>
</g>
<defs>
<clipPath id="clip0_395_3743">
<rect width="100" height="20" fill="white"/>
</clipPath>
</defs>
</svg>
