<?xml version="1.0" encoding="utf-8"?>
<!-- Generator: Adobe Illustrator 26.0.2, SVG Export Plug-In . SVG Version: 6.00 Build 0)  -->
<svg version="1.1" xmlns="http://www.w3.org/2000/svg" xmlns:xlink="http://www.w3.org/1999/xlink" x="0px" y="0px"
	 viewBox="0 0 356.1 379"  xml:space="preserve">
<g>
	<path d="M273.3,102.9c-5.1-12-12.5-23.3-21.7-32.9c-19.9-20.8-46.2-32.3-73.9-32.3S123.8,49.2,103.8,70
		c-9.3,9.7-16.6,20.9-21.7,32.9c-36.4,12.6-56.4,31.2-56.4,52.7c0,19.4,16.9,37,47.5,49.4c10.1,4.1,21.5,7.5,33.6,10.3
		c3,8.4,7.9,16.1,14.4,22.6l-25.5,76.6c-1.6,4.7,1,9.8,5.7,11.4c0.9,0.3,1.9,0.5,2.8,0.5c3.8,0,7.3-2.4,8.5-6.2l23.6-70.7
		c9.6,5.6,20.8,9.3,32.8,10.4l0,30.5c0,5,4,9,9,9c0,0,0,0,0,0c5,0,9-4,9-9l0-30.6c11.7-1.3,22.9-4.9,32.6-10.5l23.6,70.8
		c1.3,3.8,4.8,6.2,8.5,6.2c0.9,0,1.9-0.1,2.8-0.5c4.7-1.6,7.3-6.7,5.7-11.4l-25.6-76.8c6.4-6.6,11.1-14.2,13.7-22.4
		c12.2-2.7,23.6-6.2,33.8-10.3c30.6-12.4,47.5-30,47.5-49.4C329.7,134.4,309.2,115.3,273.3,102.9z M116.8,82.4
		c16.5-17.2,38.1-26.7,60.9-26.7s44.4,9.5,60.9,26.7c16,16.7,25.1,38.8,25.1,60.8c0,9.2-29.9,22-86.1,22c-56.4,0-85.9-14.3-85.9-22
		C91.7,121.2,100.8,99.1,116.8,82.4z M177.3,242.4c-20,0-38.5-9.3-48.3-23c15.5,2.2,31.8,3.4,48.6,3.4c16.9,0,33.4-1.2,48.9-3.4
		C217.3,233.1,198.5,242.4,177.3,242.4z M177.7,204.7c-79,0-134-25.9-134-49.1c0-10.6,11.8-21.8,31.7-30.8
		c-1.1,6.1-1.7,12.2-1.7,18.3c0,9.2,5.9,22,33.8,30.9c18.3,5.8,43.2,9.1,70.1,9.1c27.8,0,52-2.9,70.1-8.5c28.1-8.7,34-21.9,34-31.5
		c0-6.1-0.6-12.3-1.7-18.3c19.9,8.9,31.7,20.1,31.7,30.8C311.7,178.8,256.7,204.7,177.7,204.7z" fill="#525456"/>
</g>
</svg>
